<svg xmlns="http://www.w3.org/2000/svg" xmlns:xlink="http://www.w3.org/1999/xlink" width="254.106" height="158.442" viewBox="0 0 254.106 158.442"><defs><style>.a{fill:#fff;}.b{opacity:0.249;}.c{opacity:0.284;}.d{fill:#d9b9bb;}.e{fill:#e5d5d6;}.f{fill:#e5e5e5;}.g{fill:#b0bac9;}.h{fill:#e0dfdf;}.i{fill:#fafafa;}.j{fill:#d1acae;}.k{fill:#d9bcbe;}.l{fill:url(#g);}.m{fill:#fc959f;}.n{fill:#f8bcc2;}.o{fill:#f67280;}.p{fill:url(#n);}.q{fill:#dbeff7;}.r{fill:#392741;}.s{fill:#fd939e;}.t{fill:url(#q);}.u{fill:url(#s);}.v{fill:url(#u);}.w{fill:#916a6d;}.x{fill:url(#w);}.y{fill:#024a6f;}.z{fill:url(#y);}.aa{fill:url(#aa);}.ab{fill:url(#ac);}.ac{fill:url(#ae);}.ad{fill:url(#ak);}.ae{fill:url(#al);}.af{clip-path:url(#ba);}.ag{fill:#decfd0;}.ah{fill:#c33550;}.ai{fill:#ea5969;}.aj{opacity:0.074;}.ak{fill:url(#bb);}.al{fill:url(#bl);}.am{fill:url(#bm);}.an{fill:url(#bn);}.ao{fill:url(#bp);}.ap{fill:url(#br);}.aq{fill:url(#bt);}.ar{fill:url(#bu);}.as{fill:#fd8a96;opacity:0.916;}.at{opacity:0.038;fill:url(#cd);}.au{fill:#d6d6d6;}.av{fill:#d4b5b7;stroke:#e5d5d6;}.aw{fill:none;stroke:#596c94;}.ax{filter:url(#cm);}.ay{filter:url(#cj);}.az{filter:url(#cg);}.ba{filter:url(#ce);}.bb{filter:url(#cb);}.bc{filter:url(#by);}.bd{filter:url(#bv);}.be{filter:url(#bi);}.bf{filter:url(#bf);}.bg{filter:url(#bc);}.bh{filter:url(#ay);}.bi{filter:url(#aw);}.bj{filter:url(#au);}.bk{filter:url(#as);}.bl{filter:url(#aq);}.bm{filter:url(#ao);}.bn{filter:url(#am);}.bo{filter:url(#ai);}.bp{filter:url(#o);}.bq{filter:url(#l);}.br{filter:url(#j);}.bs{filter:url(#h);}.bt{filter:url(#e);}.bu{filter:url(#c);}.bv{filter:url(#a);}</style><filter id="a" x="2.185" y="32.62" width="46.02" height="125.504" filterUnits="userSpaceOnUse"><feOffset input="SourceAlpha"/><feGaussianBlur stdDeviation="2" result="b"/><feFlood flood-opacity="0.161"/><feComposite operator="in" in2="b"/><feComposite in="SourceGraphic"/></filter><filter id="c" x="208.086" y="32.937" width="46.02" height="125.504" filterUnits="userSpaceOnUse"><feOffset input="SourceAlpha"/><feGaussianBlur stdDeviation="2" result="d"/><feFlood flood-opacity="0.161"/><feComposite operator="in" in2="d"/><feComposite in="SourceGraphic"/></filter><filter id="e" x="55.95" y="51.398" width="144.526" height="99.583" filterUnits="userSpaceOnUse"><feOffset dx="3" input="SourceAlpha"/><feGaussianBlur stdDeviation="2.5" result="f"/><feFlood flood-opacity="0.325"/><feComposite operator="in" in2="f"/><feComposite in="SourceGraphic"/></filter><linearGradient id="g" x1="0.5" x2="0.5" y2="1" gradientUnits="objectBoundingBox"><stop offset="0" stop-color="#d9b9bb"/><stop offset="1" stop-color="#e5d5d6"/></linearGradient><filter id="h" x="38.118" y="87.591" width="17.445" height="27.951" filterUnits="userSpaceOnUse"><feOffset input="SourceAlpha"/><feGaussianBlur stdDeviation="1" result="i"/><feFlood flood-opacity="0.149"/><feComposite operator="in" in2="i"/><feComposite in="SourceGraphic"/></filter><filter id="j" x="39.618" y="89.091" width="14.445" height="22.32" filterUnits="userSpaceOnUse"><feOffset input="SourceAlpha"/><feGaussianBlur stdDeviation="0.5" result="k"/><feFlood flood-opacity="0.416"/><feComposite operator="in" in2="k"/><feComposite in="SourceGraphic"/></filter><filter id="l" x="188.719" y="87.603" width="24.288" height="24.288" filterUnits="userSpaceOnUse"><feOffset input="SourceAlpha"/><feGaussianBlur stdDeviation="2" result="m"/><feFlood flood-opacity="0.322"/><feComposite operator="in" in2="m"/><feComposite in="SourceGraphic"/></filter><radialGradient id="n" cx="0.5" cy="0.5" r="0.5" gradientUnits="objectBoundingBox"><stop offset="0" stop-color="#d9b9bb"/><stop offset="0.054" stop-color="#f4dfe1"/><stop offset="0.936" stop-color="#e8cdcf"/><stop offset="1" stop-color="#cebbbd"/></radialGradient><filter id="o" x="115.767" y="103.561" width="18.328" height="10.855" filterUnits="userSpaceOnUse"><feOffset input="SourceAlpha"/><feGaussianBlur stdDeviation="1" result="p"/><feFlood flood-opacity="0.2"/><feComposite operator="in" in2="p"/><feComposite in="SourceGraphic"/></filter><linearGradient id="q" y1="0.5" x2="1" y2="0.5" gradientUnits="objectBoundingBox"><stop offset="0" stop-color="#ad898b"/><stop offset="1" stop-color="#ddc3c5"/></linearGradient><linearGradient id="s" x1="-0.101" y1="0.177" x2="1.056" y2="0.41" gradientUnits="objectBoundingBox"><stop offset="0" stop-color="#d0b2b4"/><stop offset="0.118" stop-color="#f8d4d6"/><stop offset="0.714" stop-color="#cba6a8"/><stop offset="1" stop-color="#b99b9d"/></linearGradient><linearGradient id="u" x1="0.168" y1="0.87" x2="1" y2="-0.015" gradientUnits="objectBoundingBox"><stop offset="0" stop-color="#d9b9bb"/><stop offset="0.078" stop-color="#c4a2a4"/><stop offset="1" stop-color="#a58688"/></linearGradient><linearGradient id="w" y1="0.5" x2="1" y2="0.5" gradientUnits="objectBoundingBox"><stop offset="0" stop-color="#778ab7"/><stop offset="0" stop-color="#d9b9bb"/><stop offset="1" stop-color="#ba898c"/></linearGradient><linearGradient id="y" x1="0.5" y1="0.314" x2="0.5" y2="1" gradientUnits="objectBoundingBox"><stop offset="0" stop-color="#d9b9bb"/><stop offset="1" stop-color="#9a7678"/></linearGradient><linearGradient id="aa" x1="0.5" x2="0.5" y2="1.538" gradientUnits="objectBoundingBox"><stop offset="0" stop-color="#d9b9bb"/><stop offset="1" stop-color="#9d7c7e"/></linearGradient><linearGradient id="ac" y1="0.5" x2="1" y2="0.5" gradientUnits="objectBoundingBox"><stop offset="0" stop-color="#d9b9bb"/><stop offset="0.207" stop-color="#d9b9bb"/><stop offset="1" stop-color="#ad9597"/></linearGradient><linearGradient id="ae" x1="0.5" x2="0.5" y2="1.087" gradientUnits="objectBoundingBox"><stop offset="0" stop-color="#d9b9bb"/><stop offset="1" stop-color="#8b7173"/></linearGradient><filter id="ai" x="39.618" y="85.592" width="14.445" height="6.5" filterUnits="userSpaceOnUse"><feOffset input="SourceAlpha"/><feGaussianBlur stdDeviation="0.5" result="aj"/><feFlood flood-opacity="0.161"/><feComposite operator="in" in2="aj"/><feComposite in="SourceGraphic"/></filter><radialGradient id="ak" cx="0.5" cy="0.5" r="0.84" gradientTransform="matrix(1, 0, 0, 0.781, 0, 0.11)" gradientUnits="objectBoundingBox"><stop offset="0" stop-color="#e4d4d5"/><stop offset="1" stop-color="#d9b9bb"/><stop offset="1" stop-color="#9bc0e4"/><stop offset="1" stop-color="#6792ba"/></radialGradient><radialGradient id="al" cx="0.5" cy="0.5" r="0.84" gradientTransform="matrix(1, 0, 0, 0.781, 0, 0.11)" gradientUnits="objectBoundingBox"><stop offset="0" stop-color="#e5d5d6"/><stop offset="1" stop-color="#d9b9bb"/><stop offset="1" stop-color="#9bc0e4"/><stop offset="1" stop-color="#6792ba"/></radialGradient><filter id="am" x="65.996" y="80.484" width="26.421" height="40.843" filterUnits="userSpaceOnUse"><feOffset dy="3" input="SourceAlpha"/><feGaussianBlur stdDeviation="2" result="an"/><feFlood flood-opacity="0.251"/><feComposite operator="in" in2="an"/><feComposite in="SourceGraphic"/></filter><filter id="ao" x="141.571" y="80.484" width="26.421" height="40.843" filterUnits="userSpaceOnUse"><feOffset dy="3" input="SourceAlpha"/><feGaussianBlur stdDeviation="2" result="ap"/><feFlood flood-opacity="0.251"/><feComposite operator="in" in2="ap"/><feComposite in="SourceGraphic"/></filter><filter id="aq" x="82.993" y="80.484" width="26.421" height="40.843" filterUnits="userSpaceOnUse"><feOffset dy="3" input="SourceAlpha"/><feGaussianBlur stdDeviation="2" result="ar"/><feFlood flood-opacity="0.251"/><feComposite operator="in" in2="ar"/><feComposite in="SourceGraphic"/></filter><filter id="as" x="158.568" y="80.484" width="26.421" height="40.843" filterUnits="userSpaceOnUse"><feOffset dy="3" input="SourceAlpha"/><feGaussianBlur stdDeviation="2" result="at"/><feFlood flood-opacity="0.251"/><feComposite operator="in" in2="at"/><feComposite in="SourceGraphic"/></filter><filter id="au" x="65.996" y="111.387" width="43.418" height="24.361" filterUnits="userSpaceOnUse"><feOffset dy="3" input="SourceAlpha"/><feGaussianBlur stdDeviation="2" result="av"/><feFlood flood-opacity="0.251"/><feComposite operator="in" in2="av"/><feComposite in="SourceGraphic"/></filter><filter id="aw" x="141.571" y="111.387" width="43.418" height="24.361" filterUnits="userSpaceOnUse"><feOffset dy="3" input="SourceAlpha"/><feGaussianBlur stdDeviation="2" result="ax"/><feFlood flood-opacity="0.251"/><feComposite operator="in" in2="ax"/><feComposite in="SourceGraphic"/></filter><filter id="ay" x="116.62" y="67.016" width="18.811" height="19.565" filterUnits="userSpaceOnUse"><feOffset input="SourceAlpha"/><feGaussianBlur stdDeviation="1" result="az"/><feFlood flood-opacity="0.435"/><feComposite operator="in" in2="az"/><feComposite in="SourceGraphic"/></filter><clipPath id="ba"><ellipse class="a" cx="6.406" cy="6.782" rx="6.406" ry="6.782" transform="translate(0 0)"/></clipPath><linearGradient id="bb" x1="0.5" x2="0.5" y2="1" gradientUnits="objectBoundingBox"><stop offset="0" stop-color="#f4f4f4"/><stop offset="0.044" stop-color="#efefef"/><stop offset="0.143" stop-color="#f4f4f4"/><stop offset="1" stop-color="#f4f4f4"/></linearGradient><filter id="bc" x="62.307" y="59.858" width="25.647" height="18.396" filterUnits="userSpaceOnUse"><feOffset dy="2" input="SourceAlpha"/><feGaussianBlur stdDeviation="1.5" result="bd"/><feFlood flood-opacity="0.161"/><feComposite operator="in" in2="bd"/><feComposite in="SourceGraphic"/></filter><filter id="bf" x="95.741" y="59.858" width="25.647" height="18.396" filterUnits="userSpaceOnUse"><feOffset dy="2" input="SourceAlpha"/><feGaussianBlur stdDeviation="1.5" result="bg"/><feFlood flood-opacity="0.161"/><feComposite operator="in" in2="bg"/><feComposite in="SourceGraphic"/></filter><filter id="bi" x="129.036" y="59.858" width="25.647" height="18.396" filterUnits="userSpaceOnUse"><feOffset dy="2" input="SourceAlpha"/><feGaussianBlur stdDeviation="1.5" result="bj"/><feFlood flood-opacity="0.161"/><feComposite operator="in" in2="bj"/><feComposite in="SourceGraphic"/></filter><linearGradient id="bl" x1="0.5" x2="0.5" y2="1" gradientUnits="objectBoundingBox"><stop offset="0" stop-color="#f7eaeb"/><stop offset="0.941" stop-color="#ead5d6"/><stop offset="1" stop-color="#d9b9bb"/></linearGradient><linearGradient id="bm" x1="0.5" x2="0.5" y2="1.026" gradientUnits="objectBoundingBox"><stop offset="0" stop-color="#f5f5f5"/><stop offset="0.813" stop-color="#f4f4f4"/><stop offset="0.911" stop-color="#fff"/><stop offset="1" stop-color="#efefef"/></linearGradient><linearGradient id="bn" x1="0.5" x2="0.5" y2="1" gradientUnits="objectBoundingBox"><stop offset="0" stop-color="#d9b9bb"/><stop offset="0.941" stop-color="#f4d6d8"/><stop offset="1" stop-color="#d5bcbe"/></linearGradient><linearGradient id="bp" x1="0.5" x2="0.5" y2="1" gradientUnits="objectBoundingBox"><stop offset="0" stop-color="#d9b9bb"/><stop offset="0.941" stop-color="#ead2d3"/><stop offset="1" stop-color="#d9b9bb"/></linearGradient><linearGradient id="br" x1="0.5" x2="0.5" y2="1" gradientUnits="objectBoundingBox"><stop offset="0" stop-color="#d9b9bb"/><stop offset="0.941" stop-color="#f7d6d8"/><stop offset="1" stop-color="#d9b9bb"/></linearGradient><linearGradient id="bt" x1="0.5" x2="0.5" y2="1" gradientUnits="objectBoundingBox"><stop offset="0" stop-color="#d9b9bb"/><stop offset="0.941" stop-color="#ebcfd1"/><stop offset="1" stop-color="#d9b9bb"/></linearGradient><linearGradient id="bu" x1="0.5" x2="0.5" y2="1" gradientUnits="objectBoundingBox"><stop offset="0" stop-color="#d8aeb1"/><stop offset="0.034" stop-color="#d9b9bb"/><stop offset="1" stop-color="#e2bfc1"/></linearGradient><filter id="bv" x="112.315" y="60.3" width="25.647" height="18.396" filterUnits="userSpaceOnUse"><feOffset dy="2" input="SourceAlpha"/><feGaussianBlur stdDeviation="1.5" result="bw"/><feFlood flood-opacity="0.161"/><feComposite operator="in" in2="bw"/><feComposite in="SourceGraphic"/></filter><filter id="by" x="145.739" y="60.3" width="25.647" height="18.396" filterUnits="userSpaceOnUse"><feOffset dy="2" input="SourceAlpha"/><feGaussianBlur stdDeviation="1.5" result="bz"/><feFlood flood-opacity="0.161"/><feComposite operator="in" in2="bz"/><feComposite in="SourceGraphic"/></filter><filter id="cb" x="178.978" y="60.3" width="25.647" height="18.396" filterUnits="userSpaceOnUse"><feOffset dy="2" input="SourceAlpha"/><feGaussianBlur stdDeviation="1.5" result="cc"/><feFlood flood-opacity="0.161"/><feComposite operator="in" in2="cc"/><feComposite in="SourceGraphic"/></filter><linearGradient id="cd" x1="0.393" y1="0.554" x2="0.862" y2="0.771" gradientUnits="objectBoundingBox"><stop offset="0" stop-color="#f8e4e5"/><stop offset="1" stop-color="#987274"/></linearGradient><filter id="ce" x="193.438" y="92.322" width="14.848" height="14.848" filterUnits="userSpaceOnUse"><feOffset input="SourceAlpha"/><feGaussianBlur stdDeviation="1" result="cf"/><feFlood flood-opacity="0.467"/><feComposite operator="in" in2="cf"/><feComposite in="SourceGraphic"/></filter><filter id="cg" x="190.625" y="89.346" width="20.475" height="20.475" filterUnits="userSpaceOnUse"><feOffset input="SourceAlpha"/><feGaussianBlur stdDeviation="3" result="ch"/><feFlood flood-opacity="0.161"/><feComposite operator="in" in2="ch"/><feComposite in="SourceGraphic"/></filter><filter id="cj" x="45.799" y="60.3" width="25.647" height="18.396" filterUnits="userSpaceOnUse"><feOffset dy="2" input="SourceAlpha"/><feGaussianBlur stdDeviation="1.5" result="ck"/><feFlood flood-opacity="0.161"/><feComposite operator="in" in2="ck"/><feComposite in="SourceGraphic"/></filter><filter id="cm" x="79.094" y="60.3" width="25.647" height="18.396" filterUnits="userSpaceOnUse"><feOffset dy="2" input="SourceAlpha"/><feGaussianBlur stdDeviation="1.5" result="cn"/><feFlood flood-opacity="0.161"/><feComposite operator="in" in2="cn"/><feComposite in="SourceGraphic"/></filter></defs><g transform="translate(0.001)"><g class="bv" transform="matrix(1, 0, 0, 1, 0, 0)"><path class="b" d="M2.749,95.582V92.047a2.016,2.016,0,0,1-.63-3.285,1.987,1.987,0,0,1,.63-.426V68.6a2.015,2.015,0,0,1-.63-3.284,1.942,1.942,0,0,1,.63-.427v-.567a4.61,4.61,0,0,1,3.974-4.561V25.87H3.585a1.329,1.329,0,0,1-.011-2.658l-.08-.533-.144-.944L1.733,11.042h-.7a1.039,1.039,0,1,1,0-2.078H2.395c-.007-.12-.019-.238-.019-.361A5.744,5.744,0,0,1,6.723,3.04V1.4a1.395,1.395,0,1,1,2.79,0V3.034c.16.04.313.085.467.138a5.744,5.744,0,0,1,3.88,5.435c0,.119-.007.237-.013.357h1.21a1.039,1.039,0,1,1,0,2.078h-.7l-1.617,10.69-.05.329-.094.615-.082.536a1.329,1.329,0,0,1-.009,2.658h-3V59.76a4.623,4.623,0,0,1,3.946,4.558v.624a2.015,2.015,0,0,1,.521,3.228,2.058,2.058,0,0,1-.521.364V88.4a2.012,2.012,0,0,1,.521,3.225,2.145,2.145,0,0,1-.521.366v3.6Z" transform="translate(17.15 47.58)"/></g><g class="bu" transform="matrix(1, 0, 0, 1, 0, 0)"><path class="c" d="M2.749,95.582V92.047a2.016,2.016,0,0,1-.63-3.285,1.987,1.987,0,0,1,.63-.426V68.6a2.015,2.015,0,0,1-.63-3.284,1.942,1.942,0,0,1,.63-.427v-.567a4.61,4.61,0,0,1,3.974-4.561V25.87H3.585a1.329,1.329,0,0,1-.011-2.658l-.08-.533-.144-.944L1.733,11.042h-.7a1.039,1.039,0,1,1,0-2.078H2.395c-.007-.12-.019-.238-.019-.361A5.744,5.744,0,0,1,6.723,3.04V1.4a1.395,1.395,0,1,1,2.79,0V3.034c.16.04.313.085.467.138a5.744,5.744,0,0,1,3.88,5.435c0,.119-.007.237-.013.357h1.21a1.039,1.039,0,1,1,0,2.078h-.7l-1.617,10.69-.05.329-.094.615-.082.536a1.329,1.329,0,0,1-.009,2.658h-3V59.76a4.623,4.623,0,0,1,3.946,4.558v.624a2.015,2.015,0,0,1,.521,3.228,2.058,2.058,0,0,1-.521.364V88.4a2.012,2.012,0,0,1,.521,3.225,2.145,2.145,0,0,1-.521.366v3.6Z" transform="translate(223.05 47.9)"/></g><g transform="translate(195.314 90.591)"><g transform="translate(0)"><rect class="d" width="1.693" height="7.96"/></g></g><g transform="translate(204.717 90.591)"><g transform="translate(0)"><rect class="d" width="1.693" height="7.96"/></g></g><g class="bt" transform="matrix(1, 0, 0, 1, 0, 0)"><rect class="e" width="129.526" height="84.583" rx="4" transform="translate(60.45 58.9)"/></g><g transform="translate(113.696 91.838)"><path class="f" d="M294.963,452.126v51.643h27.078V452.126Zm22.89,48.572h-18.7V487.3h18.7Zm0-17.866h-18.7V454.638h18.7Z" transform="translate(-294.963 -452.126)"/></g><g transform="translate(115.027 94.35)"><rect class="a" width="18.703" height="28.194" transform="translate(0)"/></g><g transform="translate(115.027 127.011)"><rect class="a" width="18.703" height="13.399" transform="translate(0 0)"/></g><g transform="translate(132.414 127.011)"><path class="g" d="M331.306,520.416h1.315v1.315Z" transform="translate(-331.306 -520.416)"/></g><g transform="translate(111.816 91.838)"><path class="h" d="M291.313,452.126v51.643h27.078V452.126ZM314.2,500.7H295.5V487.3h18.7Zm0-17.866H295.5V454.638h18.7Z" transform="translate(-291.313 -452.126)"/></g><g transform="translate(110.839 91.838)"><path class="i" d="M289.416,452.126v51.643h27.078V452.126Zm22.89,48.572H293.6V487.3h18.7Zm0-17.866H293.6V454.638h18.7Z" transform="translate(-289.416 -452.126)"/></g><g transform="translate(134.357 118.208)"><path class="j" d="M336.555,503.325h0a1.477,1.477,0,0,1,1.477,1.477v2.508a1.477,1.477,0,0,1-1.477,1.477h0a1.477,1.477,0,0,1-1.477-1.477V504.8A1.477,1.477,0,0,1,336.555,503.325Z" transform="translate(-335.078 -503.325)"/></g><g transform="translate(38.673 87.092)"><path class="d" d="M167.56,442.91v3.5H147.536a1.751,1.751,0,0,1-1.751-1.751h0a1.758,1.758,0,0,1,1.751-1.751Z" transform="translate(-145.785 -442.91)"/></g><g transform="translate(41.117 87.092)"><path class="k" d="M169.861,442.91v3.5H152.277a1.751,1.751,0,0,1,0-3.5Z" transform="translate(-150.529 -442.91)"/></g><g transform="translate(189.975 87.091)"><path class="k" d="M461.32,444.66a1.751,1.751,0,0,1-1.747,1.751H439.546v-3.5h20.027A1.751,1.751,0,0,1,461.32,444.66Z" transform="translate(-439.546 -442.909)"/></g><g transform="translate(193.164 87.091)"><path class="l" d="M464.134,444.66a1.746,1.746,0,0,1-.508,1.236,1.722,1.722,0,0,1-1.23.515h-15.1a1.747,1.747,0,0,1-1.742-1.751h0a1.74,1.74,0,0,1,.512-1.236,1.723,1.723,0,0,1,1.23-.515h15.1A1.746,1.746,0,0,1,464.134,444.66Z" transform="translate(-445.55 -442.909)"/></g><g transform="translate(41.117 90.591)"><g class="bs" transform="matrix(1, 0, 0, 1, -41.12, -90.59)"><path class="m" d="M161.974,449.7v21.951l-5.723-4.815-5.723,4.815V449.7Z" transform="translate(-109.41 -359.11)"/></g></g><g class="br" transform="matrix(1, 0, 0, 1, 0, 0)"><path class="a" d="M161.974,449.7v19.32l-5.723-4.815-5.723,4.815V449.7Z" transform="translate(-109.41 -359.11)"/></g><g transform="translate(194.718 93.603)"><g class="bq" transform="matrix(1, 0, 0, 1, -194.72, -93.6)"><ellipse class="n" cx="6.144" cy="6.144" rx="6.144" ry="6.144" transform="translate(194.72 93.6)"/></g></g><g transform="translate(134.706 119.811)"><path class="o" d="M338.012,507.565a1.128,1.128,0,0,1-1.128,1.128h0a1.128,1.128,0,0,1-1.128-1.128h0a1.128,1.128,0,0,1,1.127-1.128h0A1.129,1.129,0,0,1,338.012,507.565Z" transform="translate(-335.756 -506.437)"/></g><path class="p" d="M312.163,410.937a8.151,8.151,0,0,0-7.794-7.712c-.113-.007-.229-.009-.345-.009a8.151,8.151,0,0,0,0,16.3c.116,0,.232,0,.345-.009a8.149,8.149,0,0,0,7.806-8.139C312.174,411.221,312.169,411.079,312.163,410.937Zm-8.139,6.8a6.369,6.369,0,0,1,0-12.738h0c.116,0,.232,0,.345.011a6.366,6.366,0,0,1,0,12.714c-.112.01-.229.013-.345.013Z" transform="translate(-178.152 -334.506)"/><g transform="translate(71.922 84.28)"><path class="q" d="M218.24,430.4h-7.9v-.036h7.866Z" transform="translate(-210.339 -430.361)"/></g><g transform="translate(150.237 80.694)"><path class="q" d="M370.3,430.525h-7.9v-.036h7.866Z" transform="translate(-362.394 -430.489)"/></g><g transform="translate(123.992 98.295)"><path class="r" d="M315.811,466.377h0a.86.86,0,0,1-.857-.857h0a.86.86,0,0,1,.857-.857h0a.859.859,0,0,1,.857.857h0A.859.859,0,0,1,315.811,466.377Z" transform="translate(-314.954 -464.663)"/></g><g transform="translate(121.387 98.722)"><path class="r" d="M314.7,474c-.958,0-2.4-.014-4.568-.045l-.233,0,3.466-8.455.145.37c1.172,2.993,2.951,7.5,3.117,7.831l.061.061-.041.1C316.607,473.944,316.583,474,314.7,474Zm-4.331-.361c2.14.029,5.113.055,5.9.024-.221-.511-.878-2.125-2.911-7.314Z" transform="translate(-309.895 -465.492)"/></g><path class="d" d="M307.826,485.53a1.8,1.8,0,0,1,0-3.6H315.3a1.8,1.8,0,0,1,0,3.6Z" transform="translate(-186.632 -374.742)"/><g class="bp" transform="matrix(1, 0, 0, 1, 0, 0)"><path class="d" d="M314.708,485.567h-7.473a2.427,2.427,0,0,1,0-4.855h7.473a2.427,2.427,0,0,1,0,4.855Zm-7.473-3.6a1.171,1.171,0,1,0,0,2.342h7.473a1.171,1.171,0,1,0,0-2.342Z" transform="translate(-186.04 -374.15)"/></g><g transform="translate(43.036 94.04)"><ellipse class="s" cx="3.803" cy="3.803" rx="3.803" ry="3.803" transform="translate(0)"/></g><g transform="translate(21.612 71.375)"><rect class="t" width="2.792" height="48.104"/></g><g transform="translate(227.594 71.375)"><rect class="t" width="2.792" height="48.104"/></g><path class="u" d="M539.922,391.93a5.723,5.723,0,0,0-3.781-6.475q-.23-.079-.466-.138V383.68a1.4,1.4,0,0,0-2.792,0v1.644a5.74,5.74,0,0,0-4.346,5.565h0a5.746,5.746,0,0,0,.1,1.042h-.954l1.829,12.087.142.944.134.876a.23.23,0,0,0,.014.064,1.549,1.549,0,0,0,1.521,1.259h5.769a1.55,1.55,0,0,0,1.521-1.259l.008-.031a.13.13,0,0,0,.006-.033l.134-.876.092-.614.051-.329,1.828-12.087Z" transform="translate(-511.271 -333.868)"/><path class="u" d="M539.922,391.93a5.723,5.723,0,0,0-3.781-6.475q-.23-.079-.466-.138V383.68a1.4,1.4,0,0,0-2.792,0v1.644a5.74,5.74,0,0,0-4.346,5.565h0a5.746,5.746,0,0,0,.1,1.042h-.954l1.829,12.087.142.944.134.876a.23.23,0,0,0,.014.064,1.549,1.549,0,0,0,1.521,1.259h5.769a1.55,1.55,0,0,0,1.521-1.259l.008-.031a.13.13,0,0,0,.006-.033l.134-.876.092-.614.051-.329,1.828-12.087Z" transform="translate(-305.288 -333.868)"/><g transform="translate(17.566 59.458)"><path class="v" d="M540.668,403.722l-.645,3.889-1.251,7.534-.145.879a.159.159,0,0,1-.011.037.172.172,0,0,1-.159.1h-6.32a.167.167,0,0,1-.17-.137l-.519-3.123v0l-1.008-6.083-.515-3.093Z" transform="translate(-529.925 -403.722)"/></g><g transform="translate(223.549 59.458)"><path class="v" d="M540.668,403.722l-.645,3.889-1.251,7.534-.145.879a.159.159,0,0,1-.011.037.172.172,0,0,1-.159.1h-6.32a.167.167,0,0,1-.17-.137l-.519-3.123v0l-1.008-6.083-.515-3.093Z" transform="translate(-529.925 -403.722)"/></g><g transform="translate(18.08 62.55)"><g transform="translate(0)"><path class="w" d="M539.255,418.056l-.145.879a.135.135,0,0,1-.011.037c-.123.039-.249.073-.374.1h-3.531l-3.263-3.26v0l-1.008-6.083Z" transform="translate(-530.922 -409.726)"/></g></g><g transform="translate(224.063 62.55)"><g transform="translate(0)"><path class="w" d="M539.255,418.056l-.145.879a.135.135,0,0,1-.011.037c-.123.039-.249.073-.374.1h-3.531l-3.263-3.26v0l-1.008-6.083Z" transform="translate(-530.922 -409.726)"/></g></g><g transform="translate(23.775 59.458)"><g transform="translate(0)"><path class="w" d="M546.513,403.722l-.645,3.889-3.889-3.889Z" transform="translate(-541.98 -403.722)"/></g></g><g transform="translate(229.758 59.458)"><g transform="translate(0)"><path class="w" d="M546.513,403.722l-.645,3.889-3.889-3.889Z" transform="translate(-541.98 -403.722)"/></g></g><g transform="translate(22.362 59.104)"><rect class="x" width="1.152" height="12.806" transform="translate(0 0)"/></g><g transform="translate(228.345 59.104)"><rect class="x" width="1.152" height="12.806" transform="translate(0 0)"/></g><g transform="translate(18.385 71.093)"><path class="y" d="M540.621,426.312l-.134.876a.125.125,0,0,1-.006.034l-.008.031h-8.81a.274.274,0,0,1-.014-.064l-.134-.876Z" transform="translate(-531.515 -426.312)"/></g><g transform="translate(224.368 71.093)"><path class="y" d="M540.621,426.312l-.134.876a.125.125,0,0,1-.006.034l-.008.031h-8.81a.274.274,0,0,1-.014-.064l-.134-.876Z" transform="translate(-531.515 -426.312)"/></g><g transform="translate(14.89 57.378)"><path class="z" d="M540.824,400.723a1.039,1.039,0,0,1-1.039,1.039H525.766a1.039,1.039,0,0,1,0-2.077h14.019A1.04,1.04,0,0,1,540.824,400.723Z" transform="translate(-524.728 -399.685)"/></g><g transform="translate(220.872 57.378)"><path class="z" d="M540.824,400.723a1.039,1.039,0,0,1-1.039,1.039H525.766a1.039,1.039,0,0,1,0-2.077h14.019A1.04,1.04,0,0,1,540.824,400.723Z" transform="translate(-524.728 -399.685)"/></g><g transform="translate(17.146 70.795)"><path class="aa" d="M540.693,427.063a1.335,1.335,0,0,1-1.331,1.329h-8.925a1.327,1.327,0,0,1-.938-2.267,1.313,1.313,0,0,1,.938-.391h8.925A1.334,1.334,0,0,1,540.693,427.063Z" transform="translate(-529.108 -425.734)"/></g><g transform="translate(223.128 70.795)"><path class="aa" d="M540.693,427.063a1.335,1.335,0,0,1-1.331,1.329h-8.925a1.327,1.327,0,0,1-.938-2.267,1.313,1.313,0,0,1,.938-.391h8.925A1.334,1.334,0,0,1,540.693,427.063Z" transform="translate(-529.108 -425.734)"/></g><g transform="translate(17.64 107.294)"><path class="ab" d="M540.776,501.205v31.263H530.068V501.205a4.607,4.607,0,0,1,4.606-4.606h1.494a4.61,4.61,0,0,1,4.609,4.606Z" transform="translate(-530.068 -496.599)"/></g><g transform="translate(223.623 107.294)"><path class="ab" d="M540.776,501.205v31.263H530.068V501.205a4.607,4.607,0,0,1,4.606-4.606h1.494a4.61,4.61,0,0,1,4.609,4.606Z" transform="translate(-530.068 -496.599)"/></g><g transform="translate(16.414 135.691)"><path class="ac" d="M542.155,427.063a1.255,1.255,0,0,1-.44.938,1.593,1.593,0,0,1-1.059.391H530.6a1.424,1.424,0,0,1-1.5-1.329,1.256,1.256,0,0,1,.44-.938,1.577,1.577,0,0,1,1.056-.391h10.051A1.426,1.426,0,0,1,542.155,427.063Z" transform="translate(-529.108 -425.734)"/></g><g transform="translate(222.397 135.691)"><path class="ac" d="M542.155,427.063a1.255,1.255,0,0,1-.44.938,1.593,1.593,0,0,1-1.059.391H530.6a1.424,1.424,0,0,1-1.5-1.329,1.256,1.256,0,0,1,.44-.938,1.577,1.577,0,0,1,1.056-.391h10.051A1.426,1.426,0,0,1,542.155,427.063Z" transform="translate(-529.108 -425.734)"/></g><g transform="translate(16.414 114.387)"><path class="ac" d="M542.155,427.063a1.255,1.255,0,0,1-.44.938,1.593,1.593,0,0,1-1.059.391H530.6a1.424,1.424,0,0,1-1.5-1.329,1.256,1.256,0,0,1,.44-.938,1.577,1.577,0,0,1,1.056-.391h10.051A1.426,1.426,0,0,1,542.155,427.063Z" transform="translate(-529.108 -425.734)"/></g><g transform="translate(222.397 114.387)"><path class="ac" d="M542.155,427.063a1.255,1.255,0,0,1-.44.938,1.593,1.593,0,0,1-1.059.391H530.6a1.424,1.424,0,0,1-1.5-1.329,1.256,1.256,0,0,1,.44-.938,1.577,1.577,0,0,1,1.056-.391h10.051A1.426,1.426,0,0,1,542.155,427.063Z" transform="translate(-529.108 -425.734)"/></g><g class="bo" transform="matrix(1, 0, 0, 1, 0, 0)"><path class="m" d="M161.974,442.91v3.5H150.529v-3.5Z" transform="translate(-109.41 -355.82)"/></g><rect class="j" width="41.389" height="4.779" transform="translate(67.01 128.931)"/><rect class="j" width="41.389" height="4.779" transform="translate(142.585 128.931)"/><path class="ad" d="M0,48.032V0H2.792V.038H33.231V0h2.791V48.032Z" transform="translate(69.642 80.919)"/><path class="ae" d="M0,48.032V0H2.792V.038H33.231V0h2.791V48.032Z" transform="translate(145.218 80.919)"/><g class="bn" transform="matrix(1, 0, 0, 1, 0, 0)"><rect class="a" width="14.421" height="28.843" transform="translate(72 83.48)"/></g><g class="bm" transform="matrix(1, 0, 0, 1, 0, 0)"><rect class="a" width="14.421" height="28.843" transform="translate(147.57 83.48)"/></g><g class="bl" transform="matrix(1, 0, 0, 1, 0, 0)"><rect class="a" width="14.421" height="28.843" transform="translate(88.99 83.48)"/></g><g class="bk" transform="matrix(1, 0, 0, 1, 0, 0)"><rect class="a" width="14.421" height="28.843" transform="translate(164.57 83.48)"/></g><g class="bj" transform="matrix(1, 0, 0, 1, 0, 0)"><rect class="a" width="31.418" height="12.361" transform="translate(72 114.39)"/></g><g class="bi" transform="matrix(1, 0, 0, 1, 0, 0)"><rect class="a" width="31.418" height="12.361" transform="translate(147.57 114.39)"/></g><g class="bh" transform="matrix(1, 0, 0, 1, 0, 0)"><ellipse class="a" cx="6.406" cy="6.782" rx="6.406" ry="6.782" transform="translate(119.62 70.02)"/></g><g class="af" transform="translate(119.619 70.016)"><path class="a" d="M6.7,0A6.7,6.7,0,1,1,0,6.7,6.7,6.7,0,0,1,6.7,0Z" transform="translate(-0.239 0.031)"/><g transform="translate(-1.6 3.968)"><g transform="translate(0)"><path class="ag" d="M311.465,427.549a8.024,8.024,0,0,1-4.626.451l-6.247-6.244a8.034,8.034,0,0,1,.451-4.628Z" transform="translate(-300.438 -417.128)"/></g></g><g transform="translate(3.737 -1.135)"><g transform="translate(0)"><path class="ag" d="M321.13,415.534a7.9,7.9,0,0,1-.567,2.948L310.2,408.12a7.958,7.958,0,0,1,4.7-.371l6.03,6.03A7.922,7.922,0,0,1,321.13,415.534Z" transform="translate(-310.202 -407.553)"/></g></g></g><g transform="translate(52.634 54.431)"><path class="ah" d="M318.048,382.428a2.93,2.93,0,0,1-2.931,2.931h-139.3a2.931,2.931,0,0,1-2.931-2.931h0a2.93,2.93,0,0,1,2.931-2.931h139.3a2.93,2.93,0,0,1,2.931,2.931Z" transform="translate(-172.89 -379.497)"/></g><g transform="translate(52.634 54.431)"><path class="ai" d="M318.048,382.428H172.89a2.93,2.93,0,0,1,2.931-2.931h139.3a2.93,2.93,0,0,1,2.931,2.931Z" transform="translate(-172.89 -379.497)"/></g><path class="aj" d="M188.063,387.39v6.194h.148v9.191a8.322,8.322,0,0,0,6.429-7.049,8.324,8.324,0,0,0,8.253,7.255h0a8.324,8.324,0,0,0,8.324-8.324h0v-1.072h.14v1.072a8.324,8.324,0,0,0,8.324,8.324h0A8.324,8.324,0,0,0,228,394.658h0a8.324,8.324,0,0,0,8.323,8.324h0a8.324,8.324,0,0,0,8.323-8.324,8.324,8.324,0,0,0,8.324,8.324h0a8.324,8.324,0,0,0,8.324-8.324h0a8.324,8.324,0,0,0,8.324,8.324h0a8.324,8.324,0,0,0,8.324-8.324h0a8.324,8.324,0,0,0,8.324,8.324h0a8.324,8.324,0,0,0,8.324-8.324h0a8.324,8.324,0,0,0,8.324,8.324h0a8.323,8.323,0,0,0,8.323-8.292,8.323,8.323,0,0,0,6.5,8.086V387.39Z" transform="translate(-127.762 -328.13)"/><g class="bg" transform="matrix(1, 0, 0, 1, 0, 0)"><path class="ak" d="M200.407,395.746h16.647v1.072a8.324,8.324,0,0,1-8.324,8.324h0a8.324,8.324,0,0,1-8.324-8.324h0v-1.072Z" transform="translate(-133.6 -333.39)"/></g><g class="bf" transform="matrix(1, 0, 0, 1, 0, 0)"><path class="ak" d="M265.321,395.746h16.647v1.072a8.324,8.324,0,0,1-8.324,8.324h0a8.324,8.324,0,0,1-8.324-8.324h0v-1.072Z" transform="translate(-165.08 -333.39)"/></g><g class="be" transform="matrix(1, 0, 0, 1, 0, 0)"><path class="ak" d="M329.965,395.746h16.647v1.072a8.324,8.324,0,0,1-8.324,8.324h0a8.324,8.324,0,0,1-8.324-8.324h0v-1.072Z" transform="translate(-196.43 -333.39)"/></g><path class="ak" d="M402.933,405.142h0a8.324,8.324,0,0,1-8.323-8.324v-1.072h16.647v1.072a8.324,8.324,0,0,1-8.324,8.324Z" transform="translate(-227.78 -333.388)"/><path class="al" d="M185,371.072H168.355l5.247-18.309a10.9,10.9,0,0,1,10.478-7.9h6.764Z" transform="translate(-118.057 -308.272)"/><path class="am" d="M217.325,371.072H200.678l5.841-26.206H221.5Z" transform="translate(-133.732 -308.272)"/><path class="an" d="M249.647,371.072H233l4.172-26.206h14.979Z" transform="translate(-149.407 -308.272)"/><path class="am" d="M281.968,371.072H265.321l2.5-26.206H282.8Z" transform="translate(-165.081 -308.272)"/><path class="ao" d="M314.293,371.072H297.646l.834-26.206h14.979Z" transform="translate(-180.757 -308.272)"/><path class="am" d="M345.826,371.072H329.178l-.834-26.206h14.979Z" transform="translate(-195.644 -308.272)"/><path class="ap" d="M376.578,371.072H359.93l-2.5-26.206h14.979Z" transform="translate(-209.748 -308.272)"/><path class="am" d="M407.328,371.072H390.681l-4.172-26.206h14.979Z" transform="translate(-223.851 -308.272)"/><path class="aq" d="M438.079,371.072H421.432l-5.841-26.206h6.764a10.9,10.9,0,0,1,10.477,7.895Z" transform="translate(-237.954 -308.272)"/><g class="bd" transform="matrix(1, 0, 0, 1, 0, 0)"><path class="ar" d="M176.679,405.142h0a8.324,8.324,0,0,1-8.324-8.324h0v-1.072H185v1.072a8.324,8.324,0,0,1-8.324,8.324Z" transform="translate(-51.54 -332.95)"/></g><g class="bc" transform="matrix(1, 0, 0, 1, 0, 0)"><path class="ar" d="M176.679,405.142h0a8.324,8.324,0,0,1-8.324-8.324h0v-1.072H185v1.072a8.324,8.324,0,0,1-8.324,8.324Z" transform="translate(-18.12 -332.95)"/></g><g class="bb" transform="matrix(1, 0, 0, 1, 0, 0)"><path class="ar" d="M176.679,405.142h0a8.324,8.324,0,0,1-8.324-8.324h0v-1.072H185v1.072a8.324,8.324,0,0,1-8.324,8.324Z" transform="translate(15.12 -332.95)"/></g><path class="as" d="M2.575,0H72.622A2.575,2.575,0,0,1,75.2,2.575V28.843a2.575,2.575,0,0,1-2.575,2.575H2.575A2.575,2.575,0,0,1,0,28.843V2.575A2.575,2.575,0,0,1,2.575,0Z" transform="translate(86.417 0)"/><path class="at" d="M69.789,31.009H4.592a5.02,5.02,0,0,1-4.045-2.06H72.729V.547a5.02,5.02,0,0,1,2.06,4.045V26.009A5.006,5.006,0,0,1,69.789,31.009Z" transform="translate(86.824 0.409)"/><path class="a" d="M79.155,663.807l3.986-.249a3.041,3.041,0,0,0,.527,1.48,2.216,2.216,0,0,0,1.85.824,2.048,2.048,0,0,0,1.383-.422,1.261,1.261,0,0,0,.485-.975,1.245,1.245,0,0,0-.462-.943,5.374,5.374,0,0,0-2.146-.787,9.121,9.121,0,0,1-3.931-1.645,3.314,3.314,0,0,1-1.184-2.618,3.552,3.552,0,0,1,.605-1.974,4.008,4.008,0,0,1,1.823-1.461,8.491,8.491,0,0,1,3.334-.531,6.822,6.822,0,0,1,3.963.966,4.174,4.174,0,0,1,1.624,3.075l-3.949.231a1.844,1.844,0,0,0-2.053-1.747,1.683,1.683,0,0,0-1.1.31.952.952,0,0,0-.37.755.754.754,0,0,0,.305.582,3.433,3.433,0,0,0,1.406.5,17.618,17.618,0,0,1,3.935,1.2,4.149,4.149,0,0,1,1.73,1.5,3.815,3.815,0,0,1,.541,2.006,4.293,4.293,0,0,1-.721,2.4,4.5,4.5,0,0,1-2.016,1.67,8.136,8.136,0,0,1-3.265.57q-3.459,0-4.791-1.332A5.256,5.256,0,0,1,79.155,663.807Z" transform="translate(16.018 -645.748)"/><path class="a" d="M186.535,656.22h4.19v4.744H195.3V656.22h4.208v13.558H195.3v-5.485h-4.578v5.485h-4.19Z" transform="translate(-76.934 -647.234)"/><path class="a" d="M299.9,661.523a6.418,6.418,0,0,1,7-7.019,7.091,7.091,0,0,1,5.216,1.816,6.855,6.855,0,0,1,1.831,5.092,8.344,8.344,0,0,1-.8,3.9,5.692,5.692,0,0,1-2.312,2.368,7.623,7.623,0,0,1-3.768.847,8.674,8.674,0,0,1-3.8-.731,5.715,5.715,0,0,1-2.437-2.312A7.677,7.677,0,0,1,299.9,661.523Zm4.19.018a4.544,4.544,0,0,0,.763,2.951,2.887,2.887,0,0,0,4.166.017,5.012,5.012,0,0,0,.74-3.153,4.191,4.191,0,0,0-.773-2.8,2.641,2.641,0,0,0-2.094-.883,2.546,2.546,0,0,0-2.035.9A4.56,4.56,0,0,0,304.093,661.542Z" transform="translate(-175.07 -645.748)"/><path class="a" d="M421.118,656.22h6.964a4.771,4.771,0,0,1,3.408,1.081,4.061,4.061,0,0,1,1.133,3.08,4.181,4.181,0,0,1-1.234,3.209,5.346,5.346,0,0,1-3.769,1.157h-2.294v5.031h-4.208Zm4.208,5.78h1.027a2.637,2.637,0,0,0,1.7-.421,1.353,1.353,0,0,0,.49-1.076,1.505,1.505,0,0,0-.425-1.083,2.206,2.206,0,0,0-1.6-.444h-1.193Z" transform="translate(-279.998 -647.234)"/><g transform="translate(196.437 95.322)"><g class="ba" transform="matrix(1, 0, 0, 1, -196.44, -95.32)"><ellipse class="a" cx="4.424" cy="4.424" rx="4.424" ry="4.424" transform="translate(196.44 95.32)"/></g></g><g transform="translate(200.32 95.948)"><path class="au" d="M460.718,460.649a.543.543,0,1,1-.543-.543A.543.543,0,0,1,460.718,460.649Z" transform="translate(-459.632 -460.106)"/></g><g transform="translate(203.411 99.04)"><path class="au" d="M466.176,467.195a.542.542,0,0,1-.542-.542h0a.543.543,0,1,1,.542.543Z" transform="translate(-465.634 -466.109)"/></g><g transform="translate(200.319 102.131)"><path class="au" d="M459.631,472.653a.543.543,0,0,1,1.086,0h0a.543.543,0,0,1-1.086,0Z" transform="translate(-459.631 -472.11)"/></g><g transform="translate(200.432 97.781)"><path class="d" d="M460.71,465.14h-.86l.43-1.475h0Z" transform="translate(-459.85 -463.665)"/></g><g transform="translate(201.19 99.153)"><path class="d" d="M461.321,467.189v-.86l1.475.43h0Z" transform="translate(-461.321 -466.329)"/></g><g transform="translate(197.227 99.041)"><path class="au" d="M454.17,466.11a.543.543,0,1,1-.543.543A.543.543,0,0,1,454.17,466.11Z" transform="translate(-453.627 -466.11)"/></g><g transform="translate(200.124 98.847)"><g class="az" transform="matrix(1, 0, 0, 1, -200.13, -98.85)"><path class="av" d="M460.727,466.47a.737.737,0,0,1-.738.738h0a.738.738,0,0,1-.738-.738h0a.738.738,0,0,1,1.475,0Z" transform="translate(-259.13 -366.89)"/></g></g><path class="aw" d="M12938.96-23555.422h-250.745" transform="translate(-12688.216 23698.902)"/><g class="ay" transform="matrix(1, 0, 0, 1, 0, 0)"><path class="ar" d="M176.679,405.142h0a8.324,8.324,0,0,1-8.324-8.324h0v-1.072H185v1.072a8.324,8.324,0,0,1-8.324,8.324Z" transform="translate(-118.06 -332.95)"/></g><g class="ax" transform="matrix(1, 0, 0, 1, 0, 0)"><path class="ar" d="M176.679,405.142h0a8.324,8.324,0,0,1-8.324-8.324h0v-1.072H185v1.072a8.324,8.324,0,0,1-8.324,8.324Z" transform="translate(-84.76 -332.95)"/></g></g></svg>