<svg xmlns="http://www.w3.org/2000/svg" width="20.462" height="20.462" viewBox="0 0 20.462 20.462"><defs><style>.a{fill:#020202;}</style></defs><path class="a" d="M11.731,8.011a3.72,3.72,0,1,0,3.72,3.72A3.719,3.719,0,0,0,11.731,8.011Zm8.315,2.79a8.365,8.365,0,0,0-7.385-7.385V1.5H10.8V3.416A8.365,8.365,0,0,0,3.416,10.8H1.5v1.86H3.416A8.365,8.365,0,0,0,10.8,20.046v1.916h1.86V20.046a8.365,8.365,0,0,0,7.385-7.385h1.916V10.8Zm-8.315,7.441a6.511,6.511,0,1,1,6.511-6.511A6.506,6.506,0,0,1,11.731,18.242Z" transform="translate(-1.5 -1.5)"/></svg>