<svg xmlns="http://www.w3.org/2000/svg" width="15.53" height="20.266" viewBox="0 0 15.53 13.266"><defs><style>.a{fill:#f67280;}</style></defs><path class="a" d="M10.03,4.838A1.294,1.294,0,1,0,8.736,3.544,1.3,1.3,0,0,0,10.03,4.838ZM3.236,9.045a3.236,3.236,0,0,0,0,6.471,3.236,3.236,0,0,0,0-6.471Zm0,5.5a2.265,2.265,0,0,1,0-4.53,2.265,2.265,0,0,1,0,4.53ZM6.989,8.074,8.542,6.521l.518.518A4.533,4.533,0,0,0,12.36,8.4V7.1a3.215,3.215,0,0,1-2.33-.971L8.8,4.9a1.587,1.587,0,0,0-1.035-.388,1.086,1.086,0,0,0-.906.388L5.047,6.715a1.278,1.278,0,0,0-.388.906,1.086,1.086,0,0,0,.388.906l2.071,1.812v3.236H8.412V9.562Zm5.306.971A3.236,3.236,0,1,0,15.53,12.28,3.2,3.2,0,0,0,12.295,9.045Zm0,5.5A2.265,2.265,0,1,1,14.56,12.28,2.293,2.293,0,0,1,12.295,14.545Z" transform="translate(0 -2.25)"/></svg>