<svg xmlns="http://www.w3.org/2000/svg" width="80" height="80" viewBox="0 0 80 80"><defs><style>.a{fill:#e3edfd;}</style></defs><path class="a" d="M70.956,9.35H9.048C4.058,9.35,0,13.678,0,19.007V79.7c0,5.323,4.058,9.646,9.048,9.646H70.956C75.946,89.35,80,85.027,80,79.7v-60.7C80,13.678,75.947,9.35,70.956,9.35ZM51.732,23.712c4.826,0,8.739,4.175,8.739,9.323s-3.914,9.323-8.739,9.323-8.739-4.175-8.739-9.323S46.905,23.712,51.732,23.712ZM68.119,80.428H13.133c-2.414,0-3.489-1.863-2.4-4.161l15-31.691c1.087-2.3,3.158-2.5,4.625-.459L45.437,65.142a3.556,3.556,0,0,0,5.727.387l3.69-3.986a3.386,3.386,0,0,1,5.577.5L69.985,76.6C71.366,78.717,70.532,80.428,68.119,80.428Z" transform="translate(0 -9.35)"/></svg>