<svg xmlns="http://www.w3.org/2000/svg" width="13.671" height="10.917" viewBox="0 0 13.671 10.917"><defs><style>.a{fill:#6c63ff;}</style></defs><path class="a" d="M.38,16.163A.388.388,0,0,1,0,15.77V13.409a.388.388,0,0,1,.38-.393H1.695l1.1-.927a2.732,2.732,0,0,1,1.759-.647h3.8a.78.78,0,0,1,.75.92.8.8,0,0,1-.79.654H6.455a.394.394,0,0,0,0,.787H9.263a1.477,1.477,0,0,0,.949-.344l2.193-1.817a.764.764,0,0,1,1.011,0,.805.805,0,0,1-.031,1.2L9.8,15.819a1.487,1.487,0,0,1-.949.344ZM5.466,10.29a.775.775,0,0,1-.76-.788V6.823h.913V6.507a1.218,1.218,0,1,1,2.434,0v.315h.913V9.5a.775.775,0,0,1-.761.788ZM7.52,7.453a.228.228,0,1,0,.228-.237A.232.232,0,0,0,7.52,7.453Zm-1.825,0a.228.228,0,1,0,.228-.237A.232.232,0,0,0,5.695,7.453Zm.532-.946v.315H7.444V6.507a.609.609,0,1,0-1.217,0Z" transform="translate(0 -5.246)"/></svg>