<svg xmlns="http://www.w3.org/2000/svg" width="72.49" height="23.344" viewBox="0 0 72.49 23.344"><defs><style>.a{fill:none;stroke:#3d2643;stroke-miterlimit:10;stroke-width:0.5px;}.b{fill:#3d2643;}.c{fill:#f67280;}</style></defs><g transform="translate(-165 -62.656)"><path class="a" d="M1462.986,282.413l-1.112-1.522-.93,1.522h-1.9l1.9-2.819L1459,276.9h1.975l1.1,1.522.93-1.522h1.9l-1.914,2.783,1.981,2.73Z" transform="translate(-1227.967 -213.994)"/><path class="b" d="M1452.647,281.439l-1.112-1.622-.942,1.622h-1.951l1.932-2.977L1448.6,275.6h2.005l1.13,1.61.942-1.61h1.932l-1.963,2.935,2.024,2.9Z" transform="translate(-1218.198 -212.859)"/><path class="c" d="M376.687,425.688,372.3,417.6h4.284l1.987,4.12,1.975-4.12h4.29l-4.393,8.088v6.143h-3.749v-6.143Z" transform="translate(-207.3 -346.232)"/><path class="c" d="M599.9,426.754V417.7h3.8v9.048a2.018,2.018,0,0,0,2.09,1.969,2.049,2.049,0,0,0,2.109-1.969V417.7h3.8v9.054a5.913,5.913,0,0,1-11.806,0Z" transform="translate(-421.069 -346.326)"/><path class="c" d="M848.152,415.5v14.359h-3.78V424.22l-3.828,5.4h-.024l-3.84-5.4v5.639H832.9V415.5h1.519l6.107,8.367,6.113-8.367Z" transform="translate(-639.911 -344.26)"/><path class="c" d="M1121.313,421.23H1116.5V417.7h10.761l-4.8,10.682h4.8v3.549H1116.5Z" transform="translate(-906.278 -346.326)"/><path class="c" d="M1313.187,425.688,1308.8,417.6h4.284l1.987,4.12,1.975-4.12h4.29l-4.393,8.088v6.143h-3.755Z" transform="translate(-1086.894 -346.232)"/></g></svg>