<svg xmlns="http://www.w3.org/2000/svg" width="24.831" height="20.686" viewBox="0 0 24.831 20.686"><defs><style>.a{fill:#ec1e69;}</style></defs><g transform="translate(0 0)"><path class="a" d="M17.709,93.962h.7l4.637-4.421a1.054,1.054,0,1,1,1.455,1.526l-5.892,5.618v1.61h-.9v3.061a4.466,4.466,0,0,1-4.545,4.226H4.112A4.089,4.089,0,0,1,0,101.356v-7.58H17.709ZM4.527,102.422c-1.857-.69-1.318-4.127-1.262-5.65.036-.967-1.463-.964-1.5,0-.091,2.431-.449,6.05,2.362,7.1C5.037,104.206,5.425,102.756,4.527,102.422Z" transform="translate(-0.001 -84.895)"/><path class="a" d="M146.9,28.968a2.089,2.089,0,0,1,.389,2.332c-.412.954-1.388,1.567-.852,2.71.3.636-.646,1.192-.946.553A2.631,2.631,0,0,1,145.5,32.1c.4-.795,1.339-1.454.629-2.352C145.694,29.2,146.464,28.414,146.9,28.968Z" transform="translate(-133.115 -28.778)"/><path class="a" d="M200.16,28.968a2.09,2.09,0,0,1,.39,2.332c-.412.954-1.388,1.567-.852,2.71.3.636-.646,1.192-.946.553a2.63,2.63,0,0,1,0-2.468c.4-.795,1.339-1.454.629-2.352C198.952,29.2,199.722,28.414,200.16,28.968Z" transform="translate(-190.208 -28.778)"/><path class="a" d="M253.42,28.968a2.09,2.09,0,0,1,.39,2.332c-.412.954-1.388,1.567-.852,2.71.3.636-.646,1.192-.946.553a2.631,2.631,0,0,1,.005-2.468c.4-.795,1.339-1.454.628-2.352C252.212,29.2,252.981,28.414,253.42,28.968Z" transform="translate(-247.303 -28.778)"/></g></svg>