<svg xmlns="http://www.w3.org/2000/svg" width="30.623" height="23.546" viewBox="0 0 30.623 23.546"><defs><style>.a{fill:#213454;}</style></defs><g transform="translate(-2.255 -51.574)"><path class="a" d="M1.508,54.552H8.162V48.319H0v8.162H1.508Z" transform="translate(2.255 3.255)"/><path class="a" d="M75.214,227.426a1.879,1.879,0,0,0,0-3.758H65.173v3.758Z" transform="translate(-60.715 -163.992)"/><path class="a" d="M115.345,403.677a3.758,3.758,0,0,0,7.515,0Z" transform="translate(-107.745 -332.728)"/><path class="a" d="M94.245,149.624c.182,0,.362.009.539.026l-1.355-7.228h1.877v-1.879H93.077l-.352-1.879H85.369v1.879h2.9l1.782,10.96H83.168l-1.092-2.467a3.734,3.734,0,0,1-2.014.588H70.98a6.536,6.536,0,0,0-.635,2.818v.939H88.931A5.646,5.646,0,0,1,94.245,149.624Z" transform="translate(-65.563 -84.311)"/><circle class="a" cx="3.758" cy="3.758" r="3.758" transform="translate(24.499 74.203) rotate(-82.996)"/></g></svg>