<svg xmlns="http://www.w3.org/2000/svg" width="33.815" height="26" viewBox="0 0 33.815 26"><defs><style>.a{fill:#ec1e69;}</style></defs><path class="a" d="M1.665,55.2H9.013V48.319H0v9.013H1.665Z" transform="translate(0 -48.319)"/><path class="a" d="M76.261,227.817a2.075,2.075,0,0,0,0-4.149H65.173v4.149Z" transform="translate(-62.741 -214.722)"/><path class="a" d="M115.345,403.677a4.149,4.149,0,0,0,8.3,0Z" transform="translate(-109.444 -382.283)"/><path class="a" d="M96.736,150.766c.2,0,.4.01.6.029l-1.5-7.981h2.073v-2.074H95.446l-.389-2.075H86.935v2.075h3.2l1.968,12.1h-7.6L83.3,150.117a4.123,4.123,0,0,1-2.224.649H71.047a7.217,7.217,0,0,0-.7,3.112v1.037H90.868A6.235,6.235,0,0,1,96.736,150.766Z" transform="translate(-67.555 -135.596)"/><circle class="a" cx="4.149" cy="4.149" r="4.149" transform="translate(24.562 24.988) rotate(-82.996)"/></svg>