<svg xmlns="http://www.w3.org/2000/svg" width="26.123" height="36.005" viewBox="0 0 26.123 36.005"><g transform="translate(-70.256)"><g transform="translate(70.256)"><path d="M83.318,0A13.077,13.077,0,0,0,70.256,13.062a22.2,22.2,0,0,0,1.964,8.86A33.828,33.828,0,0,0,76.479,29a40.907,40.907,0,0,0,6.181,6.475l.658.525.658-.525A40.907,40.907,0,0,0,90.157,29a33.833,33.833,0,0,0,4.259-7.083,22.205,22.205,0,0,0,1.964-8.86A13.076,13.076,0,0,0,83.318,0Zm.7,11.091v1.055a3.928,3.928,0,0,1-2.867,3.776v7.81h-2.11V15.923a3.928,3.928,0,0,1-2.867-3.776v-4.1h2.11v3.043h.757V8.049h2.11v3.043H81.9V8.049h2.11v3.043Zm6.453,4.057a3.88,3.88,0,0,1-2.819,3.727v4.858h-2.11V8.05h1.055a3.878,3.878,0,0,1,3.874,3.874v3.224Z" transform="translate(-70.256)"/></g></g></svg>