<svg xmlns="http://www.w3.org/2000/svg" width="24.498" height="35.001" viewBox="0 0 24.498 35.001"><defs><style>.a{fill:#e8423e;}</style></defs><g transform="translate(-1009.524 -308.126)"><path class="a" d="M10039.25,13005h0a81.059,81.059,0,0,1-6.124-7.929,50.217,50.217,0,0,1-4.21-7.39,18.761,18.761,0,0,1-1.914-7.429,12.249,12.249,0,1,1,24.5,0,18.761,18.761,0,0,1-1.914,7.429,50.217,50.217,0,0,1-4.21,7.39,81.059,81.059,0,0,1-6.124,7.929Zm-5.313-21.25v4.086a.666.666,0,0,0,.666.663h9.3a.664.664,0,0,0,.662-.663v-4.086a1.824,1.824,0,0,1-.339.075,2.41,2.41,0,0,1-.379.025,2.706,2.706,0,0,1-.61-.078v2.072h-7.971v-2.072a2.723,2.723,0,0,1-.613.078,2.451,2.451,0,0,1-.715-.1Zm8.375-1.254h0a2.04,2.04,0,0,0,1.53.688,1.984,1.984,0,0,0,.283-.021,1.706,1.706,0,0,0,1.332-.992,1.911,1.911,0,0,0-.107-1.837l-1.349-2.151a.661.661,0,0,0-.561-.313h-8.385a.668.668,0,0,0-.562.313l-1.349,2.151a1.914,1.914,0,0,0-.105,1.836,1.7,1.7,0,0,0,1.326.993,1.977,1.977,0,0,0,.284.021,2.047,2.047,0,0,1,3.064,0,2.044,2.044,0,0,1,3.062,0,2.04,2.04,0,0,0,1.533-.688Z" transform="translate(-9017.477 -12661.873)"/></g></svg>