<svg xmlns="http://www.w3.org/2000/svg" width="36.379" height="36.379" viewBox="0 0 36.379 36.379"><g transform="translate(0)"><g transform="translate(12.964 17.332)"><path d="M243.418,303.937a.962.962,0,1,0,.962.962A.964.964,0,0,0,243.418,303.937Z" transform="translate(-238.193 -299.673)"/><path d="M187.681,243.932a5.232,5.232,0,0,0-5.226,5.226c0,1.988,2.941,6.074,5.225,8.734,2.285-2.661,5.226-6.749,5.226-8.734A5.232,5.232,0,0,0,187.681,243.932Zm0,8.32a3.094,3.094,0,1,1,3.094-3.094A3.1,3.1,0,0,1,187.681,252.252Z" transform="translate(-182.455 -243.932)"/></g><g transform="translate(0)"><path d="M35.4,181.752H34.227V159.787A5.8,5.8,0,0,1,29.1,158.7a5.794,5.794,0,0,1-7.273,0,5.794,5.794,0,0,1-7.273,0,5.794,5.794,0,0,1-7.273,0,5.8,5.8,0,0,1-5.128,1.089v21.965H.984a.984.984,0,0,0-.984.984A1.066,1.066,0,0,0,1.066,183.8H35.313a1.066,1.066,0,0,0,1.066-1.066A.983.983,0,0,0,35.4,181.752Zm-13.2-4.67c-1.589,2.174-3.154,3.889-3.22,3.961a1.066,1.066,0,0,1-1.572,0c-.066-.072-1.631-1.787-3.22-3.961-2.255-3.085-3.351-5.408-3.351-7.1a7.357,7.357,0,1,1,14.714,0C25.547,171.673,24.45,174,22.2,177.081Z" transform="translate(0 -147.422)"/><path d="M36.015,5.127,33.736.588A1.066,1.066,0,0,0,32.784,0H3.886a1.066,1.066,0,0,0-.941.566L.508,5.149A6.473,6.473,0,0,0,.087,6.838a3.613,3.613,0,0,0,3.637,3.59A3.613,3.613,0,0,0,7.36,6.838a3.637,3.637,0,0,0,7.273,0,3.637,3.637,0,0,0,7.273,0,3.637,3.637,0,0,0,7.273,0,3.637,3.637,0,0,0,7.273,0,3.539,3.539,0,0,0-.439-1.711Z" transform="translate(-0.081)"/></g></g></svg>